<svg data-v-7703d8ba="" xmlns:dc="http://purl.org/dc/elements/1.1/" xmlns:cc="http://creativecommons.org/ns#" xmlns:rdf="http://www.w3.org/1999/02/22-rdf-syntax-ns#" xmlns:svg="http://www.w3.org/2000/svg" xmlns="http://www.w3.org/2000/svg" xmlns:sodipodi="http://sodipodi.sourceforge.net/DTD/sodipodi-0.dtd" xmlns:inkscape="http://www.inkscape.org/namespaces/inkscape" width="172mm" height="100mm" viewBox="0 0 254.61641 147.96059" version="1.1" id="track-svg" inkscape:version="0.92.4 (5da689c313, 2019-01-14)" sodipodi:docname="track.svg"><defs data-v-7703d8ba="" id="defs2"></defs><sodipodi:namedview data-v-7703d8ba="" id="base" pagecolor="#ffffff" bordercolor="#666666" borderopacity="1.0" inkscape:pageopacity="0.0" inkscape:pageshadow="2" inkscape:zoom="1.7134921" inkscape:cx="398.86837" inkscape:cy="279.16976" inkscape:document-units="mm" inkscape:current-layer="layer1" showgrid="false" inkscape:window-width="2736" inkscape:window-height="1699" inkscape:window-x="-13" inkscape:window-y="-13" inkscape:window-maximized="1" inkscape:snap-global="false" fit-margin-top="0" fit-margin-left="0" fit-margin-right="0" fit-margin-bottom="0"></sodipodi:namedview><metadata data-v-7703d8ba="" id="metadata5"><rdf:RDF data-v-7703d8ba=""><cc:Work data-v-7703d8ba="" rdf:about=""><dc:format data-v-7703d8ba="">image/svg+xml</dc:format><dc:type data-v-7703d8ba="" rdf:resource="http://purl.org/dc/dcmitype/StillImage"></dc:type><dc:title data-v-7703d8ba=""></dc:title></cc:Work></rdf:RDF></metadata><g data-v-7703d8ba="" inkscape:label="Layer 1" inkscape:groupmode="layer" id="layer1" transform="translate(-20.032494,-117.77103)"><text data-v-7703d8ba="" xml:space="preserve" x="102.95399" y="125.62585" id="text92" style="font-style: normal; font-weight: normal; font-size: 10.5833px; line-height: 1.25; font-family: sans-serif; letter-spacing: 0px; word-spacing: 0px; fill: rgb(0, 0, 0); fill-opacity: 1; stroke: none; stroke-width: 0.264583;"><tspan data-v-7703d8ba="" sodipodi:role="line" x="102.95399" y="125.62585" id="tspan90" style="stroke-width: 0.264583;"><tspan data-v-7703d8ba="" x="102.95399" y="125.62585" id="tspan88" style="stroke-width: 0.264583;">3</tspan></tspan></text><text data-v-7703d8ba="" xml:space="preserve" x="188.55551" y="125.62585" id="text98" style="font-style: normal; font-weight: normal; font-size: 10.5833px; line-height: 1.25; font-family: sans-serif; letter-spacing: 0px; word-spacing: 0px; fill: rgb(0, 0, 0); fill-opacity: 1; stroke: none; stroke-width: 0.264583;"><tspan data-v-7703d8ba="" sodipodi:role="line" x="188.55551" y="125.62585" id="tspan96" style="stroke-width: 0.264583;"><tspan data-v-7703d8ba="" x="188.55551" y="125.62585" id="tspan94" style="stroke-width: 0.264583;">2</tspan></tspan></text><text data-v-7703d8ba="" xml:space="preserve" x="188.55551" y="240.92584" id="text110" style="font-style: normal; font-weight: normal; font-size: 10.5833px; line-height: 1.25; font-family: sans-serif; letter-spacing: 0px; word-spacing: 0px; fill: rgb(0, 0, 0); fill-opacity: 1; stroke: none; stroke-width: 0.264583;"><tspan data-v-7703d8ba="" sodipodi:role="line" x="188.55551" y="240.92584" id="tspan108" style="stroke-width: 0.264583;"><tspan data-v-7703d8ba="" x="188.55551" y="240.92584" id="tspan106" style="stroke-width: 0.264583;">0</tspan></tspan></text><text data-v-7703d8ba="" xml:space="preserve" x="103.60911" y="240.92584" id="text116" style="font-style: normal; font-weight: normal; font-size: 10.5833px; line-height: 1.25; font-family: sans-serif; letter-spacing: 0px; word-spacing: 0px; fill: rgb(0, 0, 0); fill-opacity: 1; stroke: none; stroke-width: 0.264583;"><tspan data-v-7703d8ba="" sodipodi:role="line" x="103.60911" y="240.92584" id="tspan114" style="stroke-width: 0.264583;"><tspan data-v-7703d8ba="" x="103.60911" y="240.92584" id="tspan112" style="stroke-width: 0.264583;">4</tspan></tspan></text><text data-v-7703d8ba="" xml:space="preserve" x="32.42009" y="183.27585" id="text122" style="font-style: normal; font-weight: normal; font-size: 10.5833px; line-height: 1.25; font-family: sans-serif; letter-spacing: 0px; word-spacing: 0px; fill: rgb(0, 0, 0); fill-opacity: 1; stroke: none; stroke-width: 0.264583;"><tspan data-v-7703d8ba="" sodipodi:role="line" x="32.42009" y="183.27585" id="tspan120" style="stroke-width: 0.264583;"><tspan data-v-7703d8ba="" x="32.42009" y="183.27585" id="tspan118" style="stroke-width: 0.264583;">5</tspan></tspan></text><text data-v-7703d8ba="" xml:space="preserve" x="188.55551" y="180.87376" id="text104" style="font-style: normal; font-weight: normal; font-size: 10.5833px; line-height: 1.25; font-family: sans-serif; letter-spacing: 0px; word-spacing: 0px; fill: rgb(0, 0, 0); fill-opacity: 1; stroke: none; stroke-width: 0.264583;"><tspan data-v-7703d8ba="" sodipodi:role="line" x="188.55551" y="180.87376" id="tspan102" style="stroke-width: 0.264583;"><tspan data-v-7703d8ba="" x="188.55551" y="180.87376" id="tspan100" style="stroke-width: 0.264583;">1</tspan></tspan></text><path data-v-7703d8ba="" id="track" d="m 201.87601,174.23259 v 34.58823 m -82.10212,22.32256 v 34.58823 m 82.61029,-34.58823 v 34.58823 m 0,-147.46323 v 34.58823 m -83.53676,-34.58823 v 34.58823 M 274.6489,192 H 128.42095 m 130.78676,1.15809 c 0,0 -3.86029,56.66912 -56.66911,56.97795 -52.80883,0.30882 -78.13235,0.1544 -78.13235,0.1544 0,0 -68.404415,4.32353 -69.176474,-20.84559 -0.456126,-14.86969 5.643723,-21.84162 15.589081,-23.66058 6.888615,-1.2599 18.254329,0.1193 24.712387,3.27823 7.469606,3.65373 17.223336,7.42239 26.713236,7.56618 10.19117,0.15441 24.08647,-3.92439 26.25,-10.96324 2.16353,-7.03885 1.54411,-12.97059 1.54411,-12.97059 m 109.16912,-0.46324 c 0,0 -3.86029,-56.6691 -56.66911,-56.97793 -52.80883,-0.30882 -78.13235,-0.15442 -78.13235,-0.15442 0,0 -68.404415,-4.32353 -69.176474,20.84559 -0.456126,14.86969 5.643723,21.84162 15.589081,23.66058 6.888615,1.2599 18.254329,-0.1193 24.712387,-3.27823 7.469606,-3.65373 17.223336,-7.42239 26.713236,-7.56618 10.19117,-0.15441 24.08647,3.92439 26.25,10.96324 2.16353,7.03885 1.54411,12.97059 1.54411,12.97059" inkscape:connector-curvature="0" style="fill: none; stroke: rgb(0, 0, 0); stroke-width: 6; stroke-linecap: butt; stroke-linejoin: miter; stroke-opacity: 1;"></path><path data-v-7703d8ba="" d="m 25.3511,171.96508 v 40.06985" id="wall" inkscape:connector-curvature="0" style="fill: none; stroke: rgb(0, 0, 0); stroke-width: 6; stroke-linecap: butt; stroke-linejoin: miter; stroke-opacity: 1;"></path><path data-v-7703d8ba="" id="car" sodipodi:type="arc" sodipodi:cx="28.812838" sodipodi:cy="139.07336" sodipodi:rx="6.1090374" sodipodi:ry="6.1090374" sodipodi:start="0" sodipodi:end="6.2741794" sodipodi:open="true" d="m 34.921875,139.07336 a 6.1090374,6.1090374 0 0 1 -6.095283,6.10903 6.1090374,6.1090374 0 0 1 -6.12273,-6.08152 6.1090374,6.1090374 0 0 1 6.067713,-6.1364 6.1090374,6.1090374 0 0 1 6.150052,6.05388" style="opacity: 1; fill: rgb(252, 233, 79); stroke: rgb(196, 160, 0); stroke-width: 1; stroke-linecap: round; stroke-linejoin: round; stroke-miterlimit: 4; stroke-dasharray: none; visibility: hidden;"></path><path data-v-7703d8ba="" sodipodi:type="star" id="dest" sodipodi:sides="5" sodipodi:cx="28.740044" sodipodi:cy="246.79994" sodipodi:r1="8.6141825" sodipodi:r2="3.849978" sodipodi:arg1="0.93677361" sodipodi:arg2="1.5812176" inkscape:flatsided="false" inkscape:rounded="0" inkscape:randomized="0" d="m 33.843003,253.73997 -5.14308,-3.09026 -4.983334,3.14802 1.349709,-5.8463 -4.53388,-3.76664 5.977247,-0.52296 2.181242,-5.47593 2.344433,5.5231 5.881961,0.38232 -4.528308,3.93642 z" inkscape:transform-center-x="0.015174795" inkscape:transform-center-y="-0.80812123" style="opacity: 1; fill: rgb(115, 210, 22); stroke: rgb(78, 154, 6); stroke-width: 1; stroke-linecap: round; stroke-linejoin: round; stroke-miterlimit: 4; stroke-dasharray: none; visibility: hidden;"></path><path data-v-7703d8ba="" id="loc3" sodipodi:type="arc" sodipodi:cx="118.84755" sodipodi:cy="134.81686" sodipodi:rx="2.9338233" sodipodi:ry="2.9338233" sodipodi:start="0" sodipodi:end="6.2741794" sodipodi:open="true" d="m 121.78137,134.81686 a 2.9338233,2.9338233 0 0 1 -2.92722,2.93382 2.9338233,2.9338233 0 0 1 -2.94039,-2.92061 2.9338233,2.9338233 0 0 1 2.91397,-2.94696 2.9338233,2.9338233 0 0 1 2.95352,2.90733" style="opacity: 0.01;"></path><path data-v-7703d8ba="" d="m 205.31813,135.2029 a 2.9338233,2.9338233 0 0 1 -2.92722,2.93381 2.9338233,2.9338233 0 0 1 -2.9404,-2.9206 2.9338233,2.9338233 0 0 1 2.91398,-2.94697 2.9338233,2.9338233 0 0 1 2.95352,2.90733" sodipodi:open="true" sodipodi:end="6.2741794" sodipodi:start="0" sodipodi:ry="2.9338233" sodipodi:rx="2.9338233" sodipodi:cy="135.2029" sodipodi:cx="202.38431" sodipodi:type="arc" id="loc2" style="opacity: 0.01;"></path><path data-v-7703d8ba="" id="loc1" sodipodi:type="arc" sodipodi:cx="201.92108" sodipodi:cy="191.94922" sodipodi:rx="2.9338233" sodipodi:ry="2.9338233" sodipodi:start="0" sodipodi:end="6.2741794" sodipodi:open="true" d="m 204.8549,191.94922 a 2.9338233,2.9338233 0 0 1 -2.92721,2.93381 2.9338233,2.9338233 0 0 1 -2.9404,-2.9206 2.9338233,2.9338233 0 0 1 2.91398,-2.94697 2.9338233,2.9338233 0 0 1 2.95352,2.90734" style="opacity: 0.01;"></path><path data-v-7703d8ba="" d="m 122.76405,250.44443 a 2.9338233,2.9338233 0 0 1 -2.92722,2.93381 2.9338233,2.9338233 0 0 1 -2.9404,-2.9206 2.9338233,2.9338233 0 0 1 2.91398,-2.94697 2.9338233,2.9338233 0 0 1 2.95352,2.90734" sodipodi:open="true" sodipodi:end="6.2741794" sodipodi:start="0" sodipodi:ry="2.9338233" sodipodi:rx="2.9338233" sodipodi:cy="250.44443" sodipodi:cx="119.83022" sodipodi:type="arc" id="loc4" style="opacity: 0.01;"></path><path data-v-7703d8ba="" d="m 205.18247,250.14514 a 2.9338233,2.9338233 0 0 1 -2.92722,2.93382 2.9338233,2.9338233 0 0 1 -2.9404,-2.92061 2.9338233,2.9338233 0 0 1 2.91398,-2.94696 2.9338233,2.9338233 0 0 1 2.95352,2.90733" sodipodi:open="true" sodipodi:end="6.2741794" sodipodi:start="0" sodipodi:ry="2.9338233" sodipodi:rx="2.9338233" sodipodi:cy="250.14514" sodipodi:cx="202.24864" sodipodi:type="arc" id="loc0" style="opacity: 0.01;"></path><path data-v-7703d8ba="" d="m 28.30178,191.94922 a 2.9338233,2.9338233 0 0 1 -2.927218,2.93381 2.9338233,2.9338233 0 0 1 -2.940399,-2.9206 2.9338233,2.9338233 0 0 1 2.913977,-2.94697 2.9338233,2.9338233 0 0 1 2.953521,2.90734" sodipodi:open="true" sodipodi:end="6.2741794" sodipodi:start="0" sodipodi:ry="2.9338233" sodipodi:rx="2.9338233" sodipodi:cy="191.94922" sodipodi:cx="25.367956" sodipodi:type="arc" id="loc5" style="opacity: 0.01;"></path></g></svg>